<svg width="40" height="40" viewBox="0 0 40 40" fill="none" xmlns="http://www.w3.org/2000/svg">
<path d="M20.0002 6.66602H15.5558C13.1012 6.66602 11.1113 8.65586 11.1113 11.1105C11.1113 13.5651 13.1012 15.5549 15.5558 15.5549H20.0002V6.66602Z" stroke="#4F2ED3" stroke-width="1.5"/>
<path d="M20 15.5557H15.5555C13.1009 15.5557 11.1111 17.5455 11.1111 20.0001C11.1111 22.4547 13.1009 24.4446 15.5555 24.4446H20V15.5557Z" stroke="#4F2ED3" stroke-width="1.5"/>
<path d="M28.8889 20.0001C28.8889 22.4547 26.8991 24.4446 24.4445 24.4446C21.9899 24.4446 20 22.4547 20 20.0001C20 17.5455 21.9899 15.5557 24.4445 15.5557C26.8991 15.5557 28.8889 17.5455 28.8889 20.0001Z" stroke="#4F2ED3" stroke-width="1.5"/>
<path d="M15.5556 24.4443H20V28.8888C20 31.3434 18.0102 33.3332 15.5556 33.3332C13.101 33.3332 11.1111 31.3434 11.1111 28.8888C11.1111 26.4342 13.101 24.4443 15.5556 24.4443Z" stroke="#4F2ED3" stroke-width="1.5"/>
<path d="M19.9998 6.66602H24.4442C26.8988 6.66602 28.8887 8.65586 28.8887 11.1105C28.8887 13.5651 26.8988 15.5549 24.4442 15.5549H19.9998V6.66602Z" stroke="#4F2ED3" stroke-width="1.5"/>
</svg>
