<svg width="40" height="40" viewBox="0 0 40 40" fill="none" xmlns="http://www.w3.org/2000/svg">
<path d="M6.66602 19.9998C6.66602 13.7144 6.66602 10.5717 8.61864 8.61913C10.5713 6.6665 13.714 6.6665 19.9993 6.6665C26.2847 6.6665 29.4274 6.6665 31.3801 8.61913C33.3327 10.5717 33.3327 13.7144 33.3327 19.9998C33.3327 26.2852 33.3327 29.4279 31.3801 31.3805C29.4274 33.3332 26.2847 33.3332 19.9993 33.3332C13.714 33.3332 10.5713 33.3332 8.61864 31.3805C6.66602 29.4279 6.66602 26.2852 6.66602 19.9998Z" stroke="#4F2ED3" stroke-width="1.5"/>
<path d="M26.666 24H23.3327H19.9993" stroke="#4F2ED3" stroke-width="1.5" stroke-linecap="round"/>
<path d="M13.334 17.3335L14.5684 18.3622C15.8501 19.4302 16.4909 19.9643 16.4909 20.6668C16.4909 21.3694 15.8501 21.9034 14.5684 22.9715L13.334 24.0002" stroke="#4F2ED3" stroke-width="1.5" stroke-linecap="round"/>
</svg>
