<svg width="40" height="40" viewBox="0 0 40 40" fill="none" xmlns="http://www.w3.org/2000/svg">
<path d="M21.4939 30.0752C21.201 29.7823 20.7261 29.7823 20.4332 30.0752C20.1403 30.3681 20.1403 30.843 20.4332 31.1358L21.4939 30.0752ZM28.6771 30.6055L29.2075 31.1358L28.6771 30.6055ZM9.39318 11.3216L9.92351 11.8519L9.92351 11.8519L9.39318 11.3216ZM8.86285 19.5655C9.15574 19.8584 9.63062 19.8584 9.92351 19.5655C10.2164 19.2726 10.2164 18.7977 9.92351 18.5048L8.86285 19.5655ZM19.0352 9.39318L19.5655 9.92351C19.7061 9.78286 19.7852 9.59209 19.7852 9.39318C19.7852 9.19426 19.7061 9.0035 19.5655 8.86285L19.0352 9.39318ZM11.3216 9.39318L10.7912 8.86285V8.86285L11.3216 9.39318ZM30.6055 20.9635L31.1359 20.4332C30.9952 20.2926 30.8044 20.2135 30.6055 20.2135C30.4066 20.2135 30.2158 20.2926 30.0752 20.4332L30.6055 20.9635ZM30.6055 28.6771L30.0752 28.1468L30.6055 28.6771ZM15.2908 12.0768C14.9979 12.3697 14.9979 12.8446 15.2908 13.1375C15.5837 13.4304 16.0586 13.4304 16.3515 13.1375L15.2908 12.0768ZM26.8612 23.6472C26.5683 23.9401 26.5683 24.415 26.8612 24.7079C27.1541 25.0008 27.629 25.0008 27.9219 24.7079L26.8612 23.6472ZM10.7912 8.86285L8.86285 10.7912L9.92351 11.8519L11.8519 9.92351L10.7912 8.86285ZM29.2075 31.1358L31.1359 29.2075L30.0752 28.1468L28.1468 30.0752L29.2075 31.1358ZM20.4332 31.1358C21.3273 32.0299 22.05 32.7549 22.6952 33.2472C23.3576 33.7526 24.0256 34.0827 24.8203 34.0827V32.5827C24.4854 32.5827 24.1341 32.4582 23.6051 32.0546C23.0587 31.6378 22.4179 30.9992 21.4939 30.0752L20.4332 31.1358ZM28.1468 30.0752C27.2228 30.9992 26.5819 31.6378 26.0356 32.0546C25.5066 32.4582 25.1552 32.5827 24.8203 32.5827V34.0827C25.6151 34.0827 26.283 33.7526 26.9455 33.2472C27.5906 32.7549 28.3134 32.0299 29.2075 31.1358L28.1468 30.0752ZM8.86285 10.7912C7.96879 11.6853 7.24376 12.4081 6.75154 13.0532C6.24611 13.7157 5.91602 14.3836 5.91602 15.1784H7.41602C7.41602 14.8435 7.54045 14.4921 7.94407 13.9631C8.3609 13.4168 8.99946 12.7759 9.92351 11.8519L8.86285 10.7912ZM9.92351 18.5048C8.99946 17.5808 8.3609 16.94 7.94407 16.3936C7.54045 15.8646 7.41602 15.5133 7.41602 15.1784H5.91602C5.91602 15.9731 6.24611 16.6411 6.75154 17.3035C7.24376 17.9486 7.96879 18.6714 8.86285 19.5655L9.92351 18.5048ZM19.5655 8.86285C18.6714 7.96879 17.9487 7.24376 17.3035 6.75154C16.6411 6.24611 15.9731 5.91602 15.1784 5.91602V7.41602C15.5133 7.41602 15.8646 7.54045 16.3936 7.94407C16.94 8.3609 17.5808 8.99946 18.5048 9.92351L19.5655 8.86285ZM11.8519 9.92351C12.7759 8.99946 13.4168 8.3609 13.9631 7.94407C14.4921 7.54045 14.8435 7.41602 15.1784 7.41602V5.91602C14.3836 5.91602 13.7157 6.24611 13.0532 6.75154C12.4081 7.24376 11.6853 7.96879 10.7912 8.86285L11.8519 9.92351ZM30.0752 21.4939C30.9992 22.4179 31.6378 23.0587 32.0546 23.6051C32.4583 24.1341 32.5827 24.4854 32.5827 24.8203H34.0827C34.0827 24.0256 33.7526 23.3576 33.2472 22.6952C32.7549 22.05 32.0299 21.3273 31.1359 20.4332L30.0752 21.4939ZM31.1359 29.2075C32.0299 28.3134 32.7549 27.5906 33.2472 26.9455C33.7526 26.283 34.0827 25.6151 34.0827 24.8203H32.5827C32.5827 25.1552 32.4582 25.5066 32.0546 26.0356C31.6378 26.5819 30.9992 27.2227 30.0752 28.1468L31.1359 29.2075ZM18.5048 8.86285L15.2908 12.0768L16.3515 13.1375L19.5655 9.92351L18.5048 8.86285ZM30.0752 20.4332L26.8612 23.6472L27.9219 24.7079L31.1359 21.4939L30.0752 20.4332Z" fill="#4F2ED3"/>
<path d="M23.1461 9.43756L24.3819 8.20172C26.4295 6.15411 29.7494 6.15411 31.797 8.20172C33.8446 10.2493 33.8446 13.5692 31.797 15.6168L30.5611 16.8526M23.1461 9.43756C23.1461 9.43756 23.3006 12.0637 25.6178 14.3809C27.935 16.6981 30.5611 16.8526 30.5611 16.8526M23.1461 9.43756L11.7844 20.7992C11.0149 21.5688 10.6301 21.9535 10.2992 22.3778C9.90886 22.8783 9.5742 23.4198 9.30114 23.9927C9.06966 24.4784 8.89758 24.9946 8.55343 26.0271L7.45157 29.3327L7.09509 30.4021M30.5611 16.8526L19.1995 28.2142C18.4299 28.9838 18.0452 29.3686 17.6209 29.6995C17.1204 30.0898 16.5789 30.4245 16.006 30.6976C15.5203 30.929 15.004 31.1011 13.9716 31.4453L10.666 32.5471L9.59658 32.9036M9.59658 32.9036L8.52714 33.2601C8.01905 33.4294 7.45889 33.2972 7.08019 32.9185C6.70149 32.5398 6.56925 31.9796 6.73861 31.4716L7.09509 30.4021M9.59658 32.9036L7.09509 30.4021" stroke="#4F2ED3" stroke-width="1.5"/>
</svg>
