<svg width="40" height="40" viewBox="0 0 40 40" fill="none" xmlns="http://www.w3.org/2000/svg">
<path d="M19.9993 11.3341L19.459 11.8542C19.6004 12.0011 19.7955 12.0841 19.9993 12.0841C20.2032 12.0841 20.3983 12.0011 20.5397 11.8542L19.9993 11.3341ZM19.9994 31.5254L19.9994 32.2754L19.9994 31.5254ZM17.385 29.3742C15.4365 27.9084 12.9177 25.8106 10.8932 23.4482C8.84714 21.0607 7.41602 18.529 7.41602 16.1827H5.91602C5.91602 19.0865 7.65047 21.9694 9.75422 24.4243C11.8795 26.9044 14.4948 29.077 16.4832 30.5729L17.385 29.3742ZM7.41602 16.1827C7.41602 12.3712 9.13158 9.93941 11.3494 9.09579C13.5715 8.25054 16.6007 8.88451 19.459 11.8542L20.5397 10.814C17.3983 7.55014 13.7607 6.5737 10.8161 7.69379C7.86722 8.8155 5.91602 11.9248 5.91602 16.1827H7.41602ZM23.5155 30.5729C25.5039 29.077 28.1192 26.9044 30.2445 24.4244C32.3482 21.9695 34.0827 19.0865 34.0827 16.1827H32.5827C32.5827 18.529 31.1516 21.0607 29.1055 23.4483C27.081 25.8107 24.5622 27.9084 22.6137 29.3742L23.5155 30.5729ZM34.0827 16.1827C34.0827 11.9248 32.1315 8.81549 29.1826 7.69379C26.238 6.5737 22.6004 7.55014 19.459 10.814L20.5397 11.8542C23.398 8.88451 26.4272 8.25054 28.6493 9.09578C30.8671 9.9394 32.5827 12.3712 32.5827 16.1827H34.0827ZM16.4832 30.5729C17.7951 31.5597 18.6958 32.2754 19.9994 32.2754L19.9994 30.7754C19.298 30.7754 18.8236 30.4564 17.385 29.3742L16.4832 30.5729ZM22.6137 29.3742C21.1751 30.4564 20.7007 30.7754 19.9994 30.7754L19.9994 32.2754C21.3029 32.2754 22.2037 31.5597 23.5155 30.5729L22.6137 29.3742Z" fill="#4F2ED3"/>
</svg>
