<svg width="40" height="40" viewBox="0 0 40 40" fill="none" xmlns="http://www.w3.org/2000/svg">
<path d="M10.304 25.5152C8.24328 23.4545 7.21293 22.4241 6.82953 21.0873C6.44614 19.7505 6.77379 18.3307 7.4291 15.491L7.807 13.8534C8.35831 11.4644 8.63397 10.2699 9.45194 9.45194C10.2699 8.63397 11.4644 8.35831 13.8534 7.807L15.491 7.4291C18.3307 6.77379 19.7505 6.44614 21.0873 6.82953C22.4241 7.21293 23.4545 8.24328 25.5152 10.304L27.9547 12.7435C31.54 16.3288 33.3327 18.1215 33.3327 20.3491C33.3327 22.5767 31.54 24.3694 27.9547 27.9547C24.3694 31.54 22.5767 33.3327 20.3491 33.3327C18.1215 33.3327 16.3288 31.54 12.7435 27.9547L10.304 25.5152Z" stroke="#4F2ED3" stroke-width="1.5"/>
<circle cx="15.4763" cy="15.8379" r="2.66667" transform="rotate(-45 15.4763 15.8379)" stroke="#4F2ED3" stroke-width="1.5"/>
<path d="M19.389 28.666L28.6943 19.3603" stroke="#4F2ED3" stroke-width="1.5" stroke-linecap="round"/>
</svg>
